<?xml version="1.0" encoding="utf-8"?>
<!-- Generator: Adobe Illustrator 25.4.1, SVG Export Plug-In . SVG Version: 6.00 Build 0)  -->
<svg version="1.1" id="Layer_3" xmlns="http://www.w3.org/2000/svg" xmlns:xlink="http://www.w3.org/1999/xlink" x="0px" y="0px"
	 viewBox="0 0 156 42" style="enable-background:new 0 0 156 42;" xml:space="preserve">
<style type="text/css">
	.st0{fill:#FFFFFF;}
</style>
<g>
	<path class="st0" d="M8.6,17.7l3-17.7H31l-4.9,29.1l2.7,0L26.6,42h-5.4l1.1-6.6H6.8L5.7,42H0.2l2.2-12.9c1.5,0,2.7-0.8,3.6-2.4
		C7,25,7.9,22,8.6,17.7z M20.2,29.1l3.9-22.9h-8l-2,11.4c-0.5,3.3-1.2,5.9-1.9,7.7c-0.5,1.4-1.3,2.7-2.2,3.7H20.2z"/>
	<path class="st0" d="M48.1,30.3c-0.2,1-0.2,1.7-0.2,2.3c0,0.6,0.1,1,0.2,1.3c0.1,0.2,0.3,0.4,0.6,0.6l-0.2,1h-5.9
		c0-0.3,0-0.5-0.1-0.8c0-0.3,0-0.5,0-0.6v-1.6c-1.1,1.2-2,2-2.8,2.5c-1.3,0.9-2.8,1.3-4.5,1.3c-1.5,0-2.7-0.4-3.6-1.3
		c-1-1-1.6-2.5-1.6-4.4c0-0.3,0-0.6,0-0.8c0-0.2,0.1-0.6,0.2-1.2c0.4-2.5,1.3-4.4,2.6-5.8c1.3-1.4,2.9-2.3,4.9-2.6l5.1-0.9
		c0.6-0.1,1.1-0.3,1.4-0.5c0.5-0.4,0.8-0.8,0.9-1.4c0.1-0.5,0.1-0.9,0.1-1.1c0-0.9-0.3-1.5-0.9-1.8c-0.6-0.3-1.4-0.4-2.3-0.4
		c-1.2,0-2.2,0.4-2.9,1.2c-0.5,0.6-0.8,1.4-1.1,2.4h-5.3c0.9-3.6,2.4-6.2,4.5-7.6c1.6-1.1,3.7-1.6,6.3-1.6c2.5,0,4.3,0.6,5.6,1.8
		c1,1,1.6,2.4,1.6,4.1c0,0.3,0,0.5,0,0.8c-0.1,0.4-0.1,0.7-0.2,0.9L48.1,30.3z M44,22.6c-0.3,0.3-0.8,0.5-1.4,0.8
		c-0.6,0.2-1.5,0.5-2.7,0.7c-1.2,0.2-2.1,0.6-2.7,1c-0.8,0.6-1.4,1.6-1.6,2.9c-0.1,0.4-0.1,0.7-0.1,0.8c0,0.8,0.2,1.4,0.6,1.8
		c0.4,0.4,0.9,0.5,1.5,0.5c1.3,0,2.5-0.5,3.7-1.4c1.1-1,1.9-2.2,2.1-3.7L44,22.6z"/>
	<path class="st0" d="M70.9,35.4h-5.5L67.2,25h-7.8l-1.8,10.4h-5.5l4.4-26.3H62l-1.8,10.3h7.8l1.8-10.3h5.5L70.9,35.4z"/>
	<path class="st0" d="M88,29.9l3.5-20.7h5.5l-3.5,20.7H99l3.5-20.7h5.5l-4.4,26.3H76.1l4.4-26.3H86l-3.5,20.7H88z"/>
	<path class="st0" d="M127.4,35.4H122l2.7-15.8l-10.1,15.8h-5.9l4.4-26.3h5.5L115.9,25L126,9.1l5.9,0L127.4,35.4z"/>
	<path class="st0" d="M151.4,35.4h-5.5l1.8-10.4h-7.8l-1.8,10.4h-5.5L137,9.1h5.5l-1.8,10.3h7.8l1.8-10.3h5.5L151.4,35.4z"/>
</g>
</svg>
